<svg width="159" height="44" viewBox="0 0 159 44" fill="none" xmlns="http://www.w3.org/2000/svg">
<path fill-rule="evenodd" clip-rule="evenodd" d="M67 3.00155L47.3512 3.08292C44.1779 3.17121 41.0466 4.68394 38.7466 7.23279C37.9699 8.11893 37.2346 9.11581 36.4816 10.3613C35.9339 11.2672 34 14.9637 34 14.9637C34 14.9637 56.3342 15.0145 67 14.9959V15H86V3H67.3742H67V3.00155ZM106.023 14.9171L86.0002 15V3.00476C96.5077 2.98433 119.374 3.0363 119.374 3.0363C119.374 3.0363 117.441 6.73278 116.893 7.63866C116.14 8.88419 115.405 9.88107 114.628 10.7672C112.328 13.3161 109.197 14.8288 106.023 14.9171Z" fill="#D2002D"/>
<path d="M54.8775 1C44.0865 1 34.9452 7.64083 30.1772 17.2505C29.9378 17.7583 29.7955 18.0903 29.8214 18.0448L29.8408 18.0903C30.8953 16.5538 35.411 9.51589 46.8942 9.51589C47.0495 9.51589 48.1687 9.50938 48.9579 9.50287L49.0809 9.43776H49.7472C57.31 9.44427 59.7489 1.05209 59.7489 1.05209C59.7489 1.05209 55.8996 1 54.871 1H54.8775Z" fill="#FAB414"/>
<path d="M49.0805 9.44466C47.6701 9.44466 47.0361 9.44466 46.9132 9.44466C35.223 9.44466 30.8561 16.5087 29.8016 18.0452C29.7628 18.1429 29.6593 18.3317 29.5363 18.5595L28.3718 20.9229C28.1454 21.3851 27.8996 22.0037 27.9449 21.906C28.2813 21.4307 29.0511 20.5323 29.614 20.0309C30.9725 18.7223 33.5603 17.1598 37.649 17.1598C37.8495 17.1598 39.4863 17.1402 39.7063 17.1402H40.0297L40.0815 17.0621C46.1563 16.9123 48.8346 10.1087 49.0869 9.43164L49.0805 9.44466Z" fill="#EB7800"/>
<path d="M39.8747 17.0744C39.6612 17.0744 37.8303 17.0809 37.6298 17.0809C31.6779 17.0809 29.0513 20.2255 28.0421 21.6774C26.6123 24.3663 25.1114 27.2049 25.1114 27.2049L19.4507 16.4103C18.5062 14.7241 16.6753 13.5261 14.4239 13.1159C13.6476 12.9857 12.8131 12.9141 11.8168 12.9141C11.0922 12.9141 8.21973 13.0769 8.21973 13.0769C8.21973 13.0769 18.3638 32.778 18.9914 33.8588C19.6707 35.0242 20.2529 35.8836 20.434 36.1114C21.398 37.407 22.6789 38.2339 24.1281 38.4943C24.4645 38.5594 24.8009 38.5855 25.1373 38.5855C26.3924 38.5855 27.6086 38.1427 28.6373 37.3094L29.1031 36.8992C29.4977 36.5086 30.2546 35.6752 30.8757 34.4512C30.8951 34.4187 36.7111 23.4483 40.1011 17.0614C40.0299 17.0614 39.9523 17.0679 39.8811 17.0679L39.8747 17.0744Z" fill="#D2002D"/>
<path d="M12.9684 27.7396C12.1209 31.1511 10.3807 37.8441 10.3613 37.8961C9.47495 41.6202 4.60994 42.128 2.69499 41.4379C3.41309 38.9834 6.95187 24.5884 8.24575 18.82L7.29475 16.9971L1 42.4406C1.0841 42.4601 1.20055 42.4991 1.634 42.6098C2.60442 42.8898 5.14043 43.4497 8.01286 42.3429C9.89546 41.4965 11.2346 40.3441 11.7069 38.4495L13.9 29.556L12.962 27.7461L12.9684 27.7396Z" fill="black"/>
<path d="M37.358 27.7395C38.199 31.1511 39.9457 37.844 39.9651 37.8961C40.8514 41.6201 45.7165 42.128 47.6314 41.4379C46.9133 38.9833 43.5686 25.4543 42.2747 19.6794L43.2193 17.8564L49.3264 42.4405C49.2423 42.46 49.1258 42.4991 48.6924 42.6098C47.722 42.8897 45.186 43.4496 42.3135 42.3428C40.4309 41.4964 39.0982 40.3441 38.6195 38.4495L36.4199 29.556L37.3644 27.746L37.358 27.7395Z" fill="black"/>
<path d="M65.1388 10.227H63.6718V12H62.5018V7.5H63.6718V9.192H65.1388V7.5H66.3088V12H65.1388V10.227ZM67.3088 7.761C67.5488 7.653 67.8338 7.569 68.1638 7.509C68.4938 7.443 68.8388 7.41 69.1988 7.41C69.5108 7.41 69.7718 7.449 69.9818 7.527C70.1918 7.599 70.3568 7.704 70.4768 7.842C70.6028 7.98 70.6898 8.145 70.7378 8.337C70.7918 8.529 70.8188 8.745 70.8188 8.985C70.8188 9.249 70.8098 9.516 70.7918 9.786C70.7738 10.05 70.7618 10.311 70.7558 10.569C70.7558 10.827 70.7648 11.079 70.7828 11.325C70.8008 11.565 70.8458 11.793 70.9178 12.009H69.9638L69.7748 11.388H69.7298C69.6098 11.574 69.4418 11.736 69.2258 11.874C69.0158 12.006 68.7428 12.072 68.4068 12.072C68.1968 12.072 68.0078 12.042 67.8398 11.982C67.6718 11.916 67.5278 11.826 67.4078 11.712C67.2878 11.592 67.1948 11.454 67.1288 11.298C67.0628 11.136 67.0298 10.956 67.0298 10.758C67.0298 10.482 67.0898 10.251 67.2098 10.065C67.3358 9.873 67.5128 9.72 67.7408 9.606C67.9748 9.486 68.2508 9.405 68.5688 9.363C68.8928 9.315 69.2528 9.3 69.6488 9.318C69.6908 8.982 69.6668 8.742 69.5768 8.598C69.4868 8.448 69.2858 8.373 68.9738 8.373C68.7398 8.373 68.4908 8.397 68.2268 8.445C67.9688 8.493 67.7558 8.556 67.5878 8.634L67.3088 7.761ZM68.7938 11.109C69.0278 11.109 69.2138 11.058 69.3518 10.956C69.4898 10.848 69.5918 10.734 69.6578 10.614V10.029C69.4718 10.011 69.2918 10.008 69.1178 10.02C68.9498 10.032 68.7998 10.059 68.6678 10.101C68.5358 10.143 68.4308 10.203 68.3528 10.281C68.2748 10.359 68.2358 10.458 68.2358 10.578C68.2358 10.746 68.2838 10.878 68.3798 10.974C68.4818 11.064 68.6198 11.109 68.7938 11.109ZM75.6526 9.939L75.7246 9.003H75.6796L75.3196 9.777L74.4736 11.172H74.0506L73.1236 9.777L72.7816 9.003H72.7276L72.8446 9.93V12H71.8006V7.5H73.0156L74.0506 9.192L74.3026 9.759H74.3386L74.5996 9.174L75.5536 7.5H76.7776V12H75.6526V9.939ZM80.4671 11.01H81.7181V7.455L81.8531 6.843L81.4211 7.374L80.6201 7.923L80.1251 7.248L82.1771 5.592H82.8341V11.01H84.0581V12H80.4671V11.01ZM86.6446 11.091C87.0406 11.091 87.3436 10.995 87.5536 10.803C87.7636 10.611 87.8686 10.347 87.8686 10.011C87.8686 9.651 87.7456 9.387 87.4996 9.219C87.2536 9.051 86.9026 8.967 86.4466 8.967L85.7356 8.994V5.7H88.8316V6.798H86.7436V8.013L87.1126 7.977C87.4066 7.989 87.6706 8.043 87.9046 8.139C88.1446 8.235 88.3486 8.37 88.5166 8.544C88.6846 8.712 88.8136 8.919 88.9036 9.165C88.9936 9.405 89.0386 9.675 89.0386 9.975C89.0386 10.329 88.9786 10.641 88.8586 10.911C88.7386 11.181 88.5706 11.406 88.3546 11.586C88.1446 11.766 87.8956 11.901 87.6076 11.991C87.3196 12.081 87.0046 12.126 86.6626 12.126C86.3926 12.126 86.1346 12.102 85.8886 12.054C85.6486 12.012 85.4446 11.952 85.2766 11.874L85.5916 10.902C85.7296 10.962 85.8796 11.01 86.0416 11.046C86.2096 11.076 86.4106 11.091 86.6446 11.091ZM95.0084 8.535H94.1174C94.0814 8.961 94.0394 9.384 93.9914 9.804C93.9434 10.224 93.8654 10.602 93.7574 10.938C93.6554 11.268 93.5144 11.538 93.3344 11.748C93.1544 11.952 92.9204 12.054 92.6324 12.054C92.2844 12.054 92.0384 12.009 91.8944 11.919L92.0384 10.947C92.1344 10.983 92.2244 11.001 92.3084 11.001C92.4284 11.001 92.5334 10.95 92.6234 10.848C92.7134 10.746 92.7884 10.563 92.8484 10.299C92.9144 10.035 92.9654 9.678 93.0014 9.228C93.0434 8.772 93.0734 8.196 93.0914 7.5H96.1784V12H95.0084V8.535ZM100.792 11.613C100.612 11.757 100.366 11.88 100.054 11.982C99.7482 12.078 99.4212 12.126 99.0732 12.126C98.3472 12.126 97.8162 11.916 97.4802 11.496C97.1442 11.07 96.9762 10.488 96.9762 9.75C96.9762 8.958 97.1652 8.364 97.5432 7.968C97.9212 7.572 98.4522 7.374 99.1362 7.374C99.3642 7.374 99.5862 7.404 99.8022 7.464C100.018 7.524 100.21 7.623 100.378 7.761C100.546 7.899 100.681 8.085 100.783 8.319C100.885 8.553 100.936 8.844 100.936 9.192C100.936 9.318 100.927 9.453 100.909 9.597C100.897 9.741 100.876 9.891 100.846 10.047H98.1462C98.1642 10.425 98.2602 10.71 98.4342 10.902C98.6142 11.094 98.9022 11.19 99.2982 11.19C99.5442 11.19 99.7632 11.154 99.9552 11.082C100.153 11.004 100.303 10.926 100.405 10.848L100.792 11.613ZM99.1182 8.31C98.8122 8.31 98.5842 8.403 98.4342 8.589C98.2902 8.769 98.2032 9.012 98.1732 9.318H99.8472C99.8712 8.994 99.8202 8.745 99.6942 8.571C99.5742 8.397 99.3822 8.31 99.1182 8.31ZM105.003 8.535H103.734V12H102.528V8.535H101.259V7.5H105.003V8.535Z" fill="white"/>
<path d="M156.277 18.8877C155.222 18.8877 154.841 19.8253 154.828 19.8448L150.939 26.9869C150.939 26.9869 147.388 20.5089 147.038 19.8318C146.592 18.9724 145.939 18.8877 145.622 18.8877H144.056V30.9584H146.165V22.9894L150.06 30.0665H151.664L155.578 22.9699V30.9584H157.745V18.8877H156.27H156.277Z" fill="black"/>
<path d="M129.117 18.8877C128.069 18.8877 127.681 19.8253 127.668 19.8448L123.786 26.9869C123.786 26.9869 120.235 20.5089 119.885 19.8318C119.445 18.9724 118.785 18.8877 118.475 18.8877H116.903V30.9584H119.018V22.9894L122.906 30.0665H124.511L128.425 22.9699V30.9584H130.592V18.8877H129.117Z" fill="black"/>
<path d="M64.824 18.8877C63.7759 18.8877 63.3878 19.8253 63.3813 19.8448L59.4932 26.9869C59.4932 26.9869 55.9479 20.5089 55.5986 19.8318C55.1522 18.9724 54.5052 18.8877 54.1882 18.8877H52.6162V30.9584H54.7252V22.9894L58.6198 30.0665H60.2242L64.1382 22.9699V30.9584H66.3055V18.8877H64.824Z" fill="black"/>
<path d="M91.6268 30.542C91.6139 30.4965 91.4262 29.3636 90.5464 28.9795C89.8671 28.6865 89.4595 28.2047 89.1814 27.8141C88.6703 27.0979 87.247 25.1252 86.8588 24.5913C87.1758 24.1486 88.2174 22.6642 88.8126 21.8894C89.259 21.297 89.4466 21.0561 90.21 20.8543C91.1545 20.6068 91.3939 19.6693 91.3874 19.2071V18.9076C91.3874 18.9076 90.9993 18.8815 90.8375 18.8815C90.1453 18.8815 88.4503 18.9987 87.564 20.1251C87.0141 20.8087 85.2156 23.1199 84.7821 23.6733L83.4818 23.8882V18.875H81.2822L81.2951 30.9522H83.4818V26.0107L85.0668 25.8088C85.4808 26.3818 87.1176 28.6344 88.0169 29.7152C88.929 30.809 89.9512 30.9718 90.4752 30.9718C90.6887 30.9718 91.6786 30.8741 91.6786 30.8741L91.6268 30.5355V30.542Z" fill="black"/>
<path d="M113.933 18.7773C112.484 18.7773 111.481 20.0208 111.21 20.4049L105.847 27.2346V18.8814H103.647V31.0628H104.378C105.4 31.0628 105.905 30.6396 106.552 29.8128C106.953 29.2984 112.2 22.6316 112.542 22.1953V30.9651H114.69V18.7773H113.94H113.933Z" fill="black"/>
<path d="M143.039 18.8815C142.884 18.849 142.509 18.7709 142.36 18.7709C141.933 18.7709 140.885 18.9011 140.445 20.1186C140.018 21.2514 138.291 25.7112 137.663 27.3649C137.424 26.7464 134.506 19.9363 134.506 19.9363C134.196 19.1485 133.529 18.7188 132.624 18.7188C132.539 18.7188 132.294 18.7577 132.112 18.7903L131.621 18.8619C131.621 18.8619 132.125 19.6889 132.63 20.9324C132.902 21.629 135.302 27.2672 136.175 29.5329L136.686 29.7282L136.227 30.9783C135.955 31.727 135.599 32.1567 135.173 32.2413C135.05 32.2674 134.933 32.2738 134.83 32.2868H134.733C134.416 32.3194 134.079 32.352 133.756 32.6189C133.096 33.1723 133.212 34.4548 133.212 34.4548C133.212 34.4548 134.027 34.4809 134.183 34.4809C136.272 34.4809 137.689 33.4132 138.524 31.2061C138.524 31.2061 142.14 21.896 142.509 20.9584C143.13 19.4349 143.402 18.9597 143.402 18.9597L143.039 18.8815Z" fill="black"/>
<path d="M100.503 28.621C100.212 28.621 99.9013 28.6861 99.5972 28.8163C99.1508 28.9661 98.2516 29.1419 97.954 29.1419C95.3727 29.1419 94.357 27.9699 94.357 24.9425C94.357 21.9151 95.2303 20.6064 98.051 20.6064C98.6203 20.6064 99.0797 20.8018 99.4872 20.958L99.6296 21.0166C99.856 21.1012 100.082 21.1403 100.322 21.1403C101.124 21.1403 101.816 20.639 101.868 20.5088L102.101 20.1637L101.9 19.9749C101.803 19.8772 101.687 19.7926 101.629 19.7405L101.596 19.7145C100.613 18.9592 99.4161 18.5947 97.9475 18.5947C95.1657 18.5947 92.0215 19.2392 92.0215 24.2589V25.4829C92.0215 29.246 94.3052 31.1601 97.9087 31.1601C99.4549 31.1601 100.949 30.6979 101.907 29.9231L102.094 29.7669L101.991 29.5455C101.971 29.5065 101.564 28.608 100.496 28.608L100.503 28.621Z" fill="black"/>
<path d="M78.8171 28.7448V23.5363C78.8171 19.9099 77.4521 18.6143 73.6093 18.6143C72.0889 18.6143 70.0381 19.1482 69.0483 19.656L68.7442 19.7797L68.8801 20.0792C69.1389 20.6521 69.6823 21.2641 70.4328 21.2641C70.6333 21.2641 70.8468 21.2185 71.0538 21.1339C71.6167 20.906 72.5741 20.7498 73.4281 20.7498C76.2682 20.7498 76.6305 21.3618 76.6564 23.0741H76.4623C70.1287 23.1913 68.1426 25.2291 68.1426 27.6966C68.1426 29.5 68.7895 31.1733 72.3348 31.1733C74.9484 31.1733 76.3005 30.5417 76.9928 29.9102C77.3292 30.5873 77.9826 30.9389 79.0048 30.9845C79.0048 30.9845 78.8236 29.194 78.8236 28.7448H78.8171ZM72.5547 29.1159C70.7951 29.1159 70.2904 28.5169 70.2904 27.625C70.2904 26.1861 71.7267 25.0598 76.3523 25.0598H76.6434V25.6197C76.6434 28.0677 75.3754 29.1159 72.5483 29.1159H72.5547Z" fill="black"/>
<path d="M54.3976 37.487C54.6711 37.487 54.8729 37.4349 54.9966 37.3307C55.1138 37.22 55.1724 37.0703 55.1724 36.8685C55.1724 36.6862 55.1073 36.5299 54.964 36.4062C54.8273 36.2825 54.619 36.2174 54.339 36.2174C54.0916 36.2174 53.8833 36.2825 53.714 36.4128C53.5448 36.5495 53.4601 36.7057 53.4601 36.888H52.7049L52.6984 36.8685C52.6854 36.4909 52.8351 36.1914 53.1542 35.957C53.4732 35.7227 53.8703 35.6055 54.339 35.6055C54.8469 35.6055 55.244 35.7161 55.5304 35.931C55.8169 36.1523 55.9601 36.4583 55.9601 36.8685C55.9601 37.0638 55.9015 37.2396 55.7843 37.4023C55.6672 37.5651 55.4979 37.6953 55.2896 37.7864C55.537 37.8711 55.7192 38.0078 55.8494 38.1771C55.9797 38.3528 56.0383 38.5547 56.0383 38.8021C56.0383 39.2057 55.882 39.5247 55.5695 39.7591C55.257 39.9869 54.8469 40.1041 54.3325 40.1041C53.8573 40.1041 53.4536 39.9869 53.1151 39.7591C52.7766 39.5247 52.6138 39.1927 52.6203 38.763L52.6268 38.737H53.3755C53.3755 38.9388 53.4667 39.1146 53.6424 39.2643C53.8247 39.414 54.0526 39.4922 54.326 39.4922C54.6125 39.4922 54.8338 39.4205 54.9966 39.2903C55.1594 39.1601 55.2375 38.9974 55.2375 38.7956C55.2375 38.5612 55.1659 38.3919 55.0291 38.2812C54.8924 38.1706 54.6711 38.1185 54.3846 38.1185H53.6229V37.4739H54.3976V37.487Z" fill="#000005"/>
<path d="M60.5703 40.0335H59.7825V38.1911H57.8424V40.0335H57.0547V35.6846H57.8424V37.5661H59.7825V35.6846H60.5703V40.0335Z" fill="#000005"/>
<path d="M64.4417 40.0299C64.4157 39.8997 64.3961 39.789 64.3766 39.6849C64.3636 39.5872 64.3571 39.483 64.3571 39.3789C64.2073 39.5872 64.0185 39.763 63.7777 39.8997C63.5433 40.0364 63.2829 40.108 63.0094 40.108C62.5602 40.108 62.2087 39.9909 61.9743 39.763C61.7399 39.5221 61.6162 39.2031 61.6162 38.7995C61.6162 38.3828 61.7855 38.0573 62.1175 37.8229C62.4561 37.5885 62.9118 37.4713 63.4847 37.4713H64.3441V37.0417C64.3441 36.7878 64.2659 36.5859 64.1097 36.4362C63.9534 36.2865 63.7386 36.2148 63.4521 36.2148C63.1982 36.2148 62.9899 36.2799 62.8336 36.4101C62.6709 36.5469 62.5993 36.6966 62.5993 36.8789H61.8441L61.8376 36.8529C61.818 36.5338 61.9678 36.2409 62.2868 35.987C62.5993 35.7266 63.0029 35.5898 63.5107 35.5898C63.999 35.5898 64.3961 35.7135 64.6956 35.9674C64.9951 36.2213 65.1448 36.5794 65.1448 37.0482V39.1445C65.1448 39.3008 65.1579 39.4505 65.1709 39.5937C65.1904 39.7369 65.2164 39.8802 65.2555 40.0169H64.4417V40.0299ZM63.1266 39.4505C63.4131 39.4505 63.6735 39.3789 63.9013 39.2291C64.1292 39.0794 64.279 38.9166 64.3506 38.7278V38.0247H63.4586C63.1396 38.0247 62.8857 38.1028 62.6969 38.2656C62.5081 38.4219 62.4105 38.6107 62.4105 38.832C62.4105 39.0208 62.4691 39.1771 62.5863 39.2877C62.7165 39.3919 62.8922 39.4505 63.1266 39.4505Z" fill="#000005"/>
<path d="M67.6826 38.1911H67.1683V40.0335H66.374V35.6846H67.1683V37.527H67.624L69.0563 35.6846H69.9873L69.9938 35.7041L68.2946 37.7679L70.137 40.014L70.124 40.0335H69.154L67.6826 38.1911Z" fill="#000005"/>
<path d="M75.5 40.0299C75.4739 39.8997 75.4544 39.789 75.4414 39.6849C75.4284 39.5872 75.4219 39.483 75.4153 39.3789C75.2656 39.5872 75.0768 39.763 74.8424 39.8997C74.6015 40.0364 74.3411 40.108 74.0742 40.108C73.6185 40.108 73.2799 39.9909 73.0391 39.763C72.8112 39.5221 72.6875 39.2031 72.6875 38.7995C72.6875 38.3828 72.8568 38.0573 73.1953 37.8229C73.5338 37.5885 73.9896 37.4713 74.5625 37.4713H75.4219V37.0417C75.4219 36.7878 75.3437 36.5859 75.194 36.4362C75.0377 36.2865 74.8164 36.2148 74.5364 36.2148C74.2825 36.2148 74.0742 36.2799 73.9115 36.4101C73.7552 36.5469 73.6771 36.6966 73.6771 36.8789H72.9219L72.9154 36.8529C72.9023 36.5338 73.0456 36.2409 73.3646 35.987C73.6836 35.7266 74.0872 35.5898 74.5885 35.5898C75.0833 35.5898 75.4739 35.7135 75.7734 35.9674C76.0729 36.2213 76.2226 36.5794 76.2226 37.0482V39.1445C76.2226 39.3008 76.2291 39.4505 76.2487 39.5937C76.2682 39.7369 76.2942 39.8802 76.3398 40.0169H75.5V40.0299ZM74.1914 39.4505C74.4779 39.4505 74.7318 39.3789 74.9661 39.2291C75.194 39.0794 75.3502 38.9166 75.4153 38.7278V38.0247H74.5299C74.2174 38.0247 73.957 38.1028 73.7617 38.2656C73.5729 38.4219 73.4753 38.6107 73.4753 38.832C73.4753 39.0208 73.5404 39.1771 73.6575 39.2877C73.7747 39.3919 73.9505 39.4505 74.1914 39.4505Z" fill="#000005"/>
<path d="M77.4004 40.0299V35.6875H79.1126C79.6855 35.6875 80.1347 35.7917 80.4472 35.987C80.7663 36.1888 80.9225 36.4883 80.9225 36.8854C80.9225 37.0937 80.8639 37.2695 80.7402 37.4258C80.6165 37.582 80.4407 37.7057 80.2194 37.7904C80.4928 37.862 80.6946 37.9857 80.8509 38.168C81.0006 38.3502 81.0787 38.5651 81.0787 38.7929C81.0787 39.2031 80.9355 39.5091 80.636 39.7174C80.3431 39.9258 79.9264 40.0234 79.3926 40.0234H77.4004V40.0299ZM78.1881 37.5234H79.1191C79.4512 37.5234 79.7051 37.4713 79.8743 37.3802C80.0436 37.276 80.1282 37.1263 80.1282 36.931C80.1282 36.7292 80.0436 36.5729 79.8743 36.4687C79.7051 36.3646 79.4512 36.3125 79.1126 36.3125H78.1881V37.5234V37.5234ZM78.1881 38.1289V39.4179H79.3926C79.6855 39.4179 79.9069 39.3659 80.0566 39.2552C80.2064 39.138 80.2845 38.9818 80.2845 38.7734C80.2845 38.5651 80.2064 38.4088 80.0566 38.2982C79.9069 38.1875 79.6855 38.1289 79.3926 38.1289H78.1881Z" fill="#000005"/>
<path d="M85.4088 36.3096H83.9765V40.0335H83.1823V36.3096H81.7695V35.6846H85.4088V36.3096Z" fill="#000005"/>
<path d="M86.042 37.819C86.042 37.1745 86.2113 36.6471 86.5628 36.2305C86.9079 35.8138 87.3831 35.6055 87.9756 35.6055C88.581 35.6055 89.0563 35.8138 89.4013 36.2305C89.7529 36.6471 89.9287 37.1745 89.9287 37.819V37.9101C89.9287 38.5547 89.7529 39.0885 89.4079 39.4987C89.0628 39.9088 88.5875 40.1172 87.9886 40.1172C87.3896 40.1172 86.9144 39.9153 86.5628 39.4987C86.2178 39.082 86.042 38.5547 86.042 37.9101V37.819V37.819ZM86.8363 37.9101C86.8363 38.3724 86.9274 38.75 87.1227 39.0495C87.318 39.3554 87.611 39.5052 87.9886 39.5052C88.3662 39.5052 88.6527 39.3554 88.848 39.0495C89.0433 38.75 89.1474 38.3724 89.1474 37.9101V37.819C89.1474 37.3633 89.0433 36.9857 88.848 36.6797C88.6527 36.3802 88.3662 36.2305 87.9821 36.2305C87.6045 36.2305 87.3245 36.3867 87.1292 36.6797C86.9339 36.9857 86.8428 37.3633 86.8428 37.819V37.9101H86.8363Z" fill="#000005"/>
<path d="M94.4066 35.6846V40.027H93.6123V36.3096H92.1409V37.54C92.1409 38.3994 92.0303 39.0309 91.8024 39.428C91.5745 39.8317 91.1839 40.027 90.637 40.027H90.4092L90.4287 39.3694H90.5915C90.8714 39.3694 91.0732 39.2262 91.1839 38.9528C91.2946 38.6793 91.3467 38.2106 91.3467 37.553V35.6911H94.4066V35.6846Z" fill="#000005"/>
<path d="M98.2012 35.6846H98.9889V40.0335H98.2012V36.9476L98.1751 36.9411L96.2546 40.0335H95.4668V35.6846H96.2546V38.777L96.2806 38.7835L98.2012 35.6846Z" fill="#000005"/>
<path d="M100.132 39.4085C100.36 39.1546 100.529 38.8877 100.646 38.6077C100.764 38.3278 100.842 37.8981 100.887 37.3187L100.952 35.6846H103.791V39.4085H104.37L104.299 41.3095H103.583V40.027H100.594V41.3095H99.8783L99.8066 39.4085H100.132V39.4085ZM101.675 37.3187C101.649 37.8004 101.577 38.2106 101.467 38.5556C101.356 38.8942 101.219 39.1806 101.05 39.4085H103.003V36.3942H101.714L101.675 37.3187Z" fill="#000005"/>
<path d="M107.039 40.1172C106.434 40.1172 105.952 39.9153 105.594 39.5117C105.236 39.108 105.054 38.5872 105.054 37.9427V37.7669C105.054 37.1484 105.236 36.6341 105.607 36.224C105.978 35.8138 106.414 35.6055 106.916 35.6055C107.502 35.6055 107.944 35.7878 108.244 36.1328C108.543 36.4909 108.693 36.9596 108.693 37.5456V38.0403H105.868L105.854 38.0599C105.868 38.4765 105.965 38.8216 106.173 39.0885C106.375 39.3554 106.662 39.4922 107.026 39.4922C107.293 39.4922 107.528 39.4531 107.729 39.375C107.931 39.2969 108.107 39.1927 108.257 39.056L108.569 39.5703C108.413 39.72 108.211 39.8502 107.951 39.9479C107.703 40.0651 107.404 40.1172 107.039 40.1172ZM106.922 36.2305C106.655 36.2305 106.427 36.3411 106.245 36.569C106.063 36.7904 105.946 37.0703 105.9 37.4088L105.913 37.4349H107.918V37.3307C107.918 37.0182 107.834 36.7643 107.664 36.556C107.495 36.3346 107.241 36.2305 106.922 36.2305Z" fill="#000005"/>
<path d="M113.332 38.0273C113.332 38.6523 113.182 39.1601 112.883 39.5442C112.583 39.9284 112.167 40.1237 111.639 40.1237C111.372 40.1237 111.138 40.0781 110.93 39.987C110.734 39.8958 110.559 39.7591 110.415 39.5833V41.7057H109.621V35.6836H110.227L110.35 36.2435C110.493 36.0417 110.669 35.8789 110.878 35.7747C111.099 35.6641 111.34 35.6055 111.62 35.6055C112.16 35.6055 112.577 35.8203 112.876 36.2435C113.176 36.6667 113.319 37.2396 113.319 37.9362V38.0273H113.332ZM112.544 37.9427C112.544 37.4479 112.447 37.0443 112.258 36.7318C112.062 36.4128 111.776 36.25 111.398 36.25C111.171 36.25 110.975 36.3086 110.819 36.4062C110.656 36.5104 110.526 36.6536 110.428 36.8359V38.9258C110.526 39.108 110.656 39.2513 110.819 39.3489C110.982 39.4531 111.177 39.5052 111.411 39.5052C111.783 39.5052 112.069 39.3685 112.264 39.0885C112.453 38.8151 112.551 38.457 112.551 38.0338V37.9427H112.544Z" fill="#000005"/>
<path d="M117.022 40.0299C116.996 39.8997 116.977 39.789 116.964 39.6849C116.951 39.5872 116.944 39.483 116.938 39.3789C116.788 39.5872 116.599 39.763 116.365 39.8997C116.124 40.0364 115.87 40.108 115.597 40.108C115.147 40.108 114.802 39.9909 114.562 39.763C114.327 39.5221 114.21 39.2031 114.21 38.7995C114.21 38.3828 114.373 38.0573 114.705 37.8229C115.043 37.5885 115.499 37.4713 116.072 37.4713H116.931V37.0417C116.931 36.7878 116.853 36.5859 116.697 36.4362C116.541 36.2865 116.319 36.2148 116.039 36.2148C115.785 36.2148 115.577 36.2799 115.421 36.4101C115.258 36.5469 115.18 36.6966 115.18 36.8789H114.425L114.418 36.8529C114.399 36.5338 114.555 36.2409 114.868 35.987C115.187 35.7266 115.59 35.5898 116.091 35.5898C116.586 35.5898 116.983 35.7135 117.283 35.9674C117.582 36.2213 117.732 36.5794 117.732 37.0482V39.1445C117.732 39.3008 117.739 39.4505 117.758 39.5937C117.778 39.7369 117.804 39.8802 117.843 40.0169H117.022V40.0299ZM115.707 39.4505C115.987 39.4505 116.248 39.3789 116.482 39.2291C116.716 39.0794 116.86 38.9166 116.931 38.7278V38.0247H116.046C115.727 38.0247 115.473 38.1028 115.284 38.2656C115.089 38.4219 114.991 38.6107 114.991 38.832C114.991 39.0208 115.056 39.1771 115.173 39.2877C115.297 39.3919 115.473 39.4505 115.707 39.4505Z" fill="#000005"/>
</svg>
