<svg width="24" height="24" viewBox="0 0 24 24" fill="none" xmlns="http://www.w3.org/2000/svg">
<g id="icon-24">
<path id="Union" fill-rule="evenodd" clip-rule="evenodd" d="M21.1103 2.00117C21.2889 2.01049 21.4649 2.08337 21.6013 2.21981C21.8173 2.43584 21.874 2.75085 21.7714 3.01884L15.3665 21.3185C15.2649 21.6087 14.9965 21.8076 14.6892 21.8201C14.3819 21.8326 14.0982 21.6563 13.9733 21.3753L10.4263 13.3947L2.44564 9.84771C2.16463 9.72281 1.98834 9.43903 2.00087 9.13178C2.01341 8.82452 2.21223 8.55604 2.50249 8.45445L20.8099 2.04685C20.8589 2.0287 20.9094 2.01584 20.9605 2.00827C21.0104 2.00085 21.0606 1.99854 21.1103 2.00117ZM18.2168 4.54366L4.78355 9.2453L10.8285 11.932L18.2168 4.54366ZM11.8891 12.9927L19.2772 5.60464L14.5757 19.0374L11.8891 12.9927Z" fill="white"/>
</g>
</svg>
