<svg width="16" height="16" viewBox="0 0 16 16" fill="none" xmlns="http://www.w3.org/2000/svg">
<path d="M14 7.563L7.854 13.806C7.48359 14.1836 7.04169 14.4836 6.55409 14.6886C6.06649 14.8936 5.54295 14.9995 5.014 15C4.4854 14.9992 3.96224 14.8932 3.475 14.6882C2.98776 14.4832 2.54619 14.1833 2.176 13.806C1.42083 13.0362 0.99847 12.0004 1 10.922C0.998995 9.84431 1.42132 8.80933 2.176 8.04L8.322 1.797C8.56883 1.54514 8.86333 1.34495 9.18834 1.20811C9.51336 1.07127 9.86236 1.00053 10.215 1C10.925 1 11.605 1.286 12.107 1.796C12.6105 2.3093 12.8921 2.99996 12.891 3.719C12.8919 4.43769 12.6103 5.12795 12.107 5.641L5.955 11.883C5.83142 12.0086 5.6841 12.1083 5.5216 12.1764C5.3591 12.2444 5.18468 12.2795 5.0085 12.2795C4.83233 12.2795 4.65791 12.2444 4.49541 12.1764C4.33291 12.1083 4.18558 12.0086 4.062 11.883C3.80978 11.6267 3.66842 11.2816 3.66842 10.922C3.66842 10.5624 3.80978 10.2173 4.062 9.961L9.74 4.201" stroke="#B7B8B8" stroke-width="2" stroke-linecap="round" stroke-linejoin="round"/>
</svg>
